<?xml version="1.0" standalone="no"?>
<!DOCTYPE svg PUBLIC "-//W3C//DTD SVG 20010904//EN"
 "http://www.w3.org/TR/2001/REC-SVG-20010904/DTD/svg10.dtd">
<svg version="1.0" xmlns="http://www.w3.org/2000/svg"
 width="1280.000000pt" height="1280.000000pt" viewBox="0 0 1280.000000 1280.000000"
 preserveAspectRatio="xMidYMid meet">
<metadata>
Created by potrace 1.11, written by Peter Selinger 2001-2013
</metadata>
<g transform="translate(0.000000,1280.000000) scale(0.100000,-0.100000)"
fill="#000000" stroke="none">
<path d="M5974 12551 c-622 -359 -4336 -2502 -4754 -2744 l-355 -205 0 -3202
0 -3202 1000 -577 c550 -318 1794 -1036 2765 -1596 970 -560 1769 -1018 1775
-1018 6 0 805 458 1775 1018 971 560 2215 1278 2765 1596 l1000 577 0 3202 0
3202 -220 127 c-121 70 -587 339 -1035 598 -3620 2089 -4247 2451 -4266 2461
-18 9 -76 -21 -450 -237z m2637 -1589 c1201 -693 2333 -1345 2514 -1450 l330
-191 3 -2919 2 -2920 -432 -249 c-238 -138 -1371 -792 -2518 -1454 -1147 -662
-2094 -1203 -2105 -1203 -11 0 -958 541 -2105 1203 -1147 662 -2280 1316
-2518 1454 l-432 249 2 2920 3 2919 340 196 c3896 2250 4703 2713 4716 2709
10 -2 1000 -571 2200 -1264z"/>
<path d="M6614 8436 c-55 -26 -118 -91 -133 -140 -6 -17 -60 -272 -120 -566
-366 -1782 -557 -2709 -593 -2880 -58 -273 -55 -336 23 -425 64 -73 178 -103
281 -75 47 13 129 88 151 137 10 21 186 859 393 1863 300 1460 374 1835 371
1876 -9 92 -70 178 -152 215 -59 27 -157 25 -221 -5z"/>
<path d="M4640 8041 c-14 -4 -43 -17 -65 -29 -60 -31 -1457 -1434 -1486 -1492
-26 -53 -31 -143 -10 -205 19 -59 1442 -1486 1516 -1521 168 -80 367 45 369
231 1 118 29 85 -645 760 l-619 620 595 595 c328 327 609 615 625 638 41 62
56 135 40 201 -28 117 -123 199 -237 207 -32 2 -69 0 -83 -5z"/>
<path d="M8034 8040 c-110 -34 -189 -141 -189 -254 1 -119 -13 -102 655 -771
l610 -610 -619 -620 c-674 -675 -646 -642 -645 -760 2 -186 201 -311 369 -231
74 36 1497 1463 1516 1521 22 66 16 152 -14 210 -35 68 -1431 1462 -1496 1495
-50 25 -140 34 -187 20z"/>
</g>
</svg>
